<svg xmlns="http://www.w3.org/2000/svg" width="24" height="24" viewBox="0 0 24 24" fill="none" stroke="#a855f7" stroke-width="2" stroke-linecap="round" stroke-linejoin="round">
  <path d="M12 5a3 3 0 1 0-5.997.125 4 4 0 0 0-2.526 5.77 4 4 0 0 0 .556 6.588A4 4 0 1 0 12 18Z"/>
  <path d="M9 13a4.5 4.5 0 0 0 3-4.14"/>
  <path d="M15 4v16"/>
  <path d="M17.5 16.5c-1.5 1.26-2.34 2.05-3 2.5"/>
  <path d="M12 12h5.5"/>
  <path d="M17.5 8.5c-1.5-1.26-2.34-2.05-3-2.5"/>
  <circle cx="19" cy="18" r="2"/>
  <circle cx="19" cy="12" r="2"/>
  <circle cx="19" cy="6" r="2"/>
</svg>
